<svg width="48" height="51" viewBox="0 0 48 51" fill="none" xmlns="http://www.w3.org/2000/svg">
<g id="A / Icon / Moon">
<path id="Shape" fill-rule="evenodd" clip-rule="evenodd" d="M7.2048 40.7952C11.8512 45.4416 18.0288 48 24.6 48L24.6048 48.0048C30.0048 48.0048 35.1048 46.2696 39.348 42.9888C41.3808 41.4168 43.152 39.5352 44.6136 37.3944C46.0872 35.2368 47.2104 32.8632 47.9544 30.3432C48.0888 29.8824 47.9376 29.3856 47.568 29.0784C47.1984 28.7712 46.6824 28.716 46.2552 28.9344C43.2384 30.4824 40.3632 31.2024 37.2024 31.2024C25.9536 31.2024 16.8024 22.0512 16.8024 10.8024C16.8024 7.6416 17.5224 4.7664 19.0704 1.7496C19.2888 1.3224 19.2336 0.8064 18.9264 0.4368C18.6192 0.0671998 18.1224 -0.0864002 17.6616 0.0503998C15.1416 0.792 12.768 1.9176 10.6104 3.3912C8.4696 4.8528 6.588 6.624 5.016 8.6568C1.7352 12.9 0 17.9976 0 23.4C0 29.9712 2.5584 36.1488 7.2048 40.7952ZM2.4 23.4C2.4 14.5296 7.6704 6.744 15.768 3.276C14.8512 5.7336 14.4 8.2152 14.4 10.8C14.4 16.8912 16.7736 22.6176 21.0792 26.9232C25.3848 31.2288 31.1088 33.6 37.2 33.6C39.7848 33.6 42.2664 33.1512 44.724 32.232C41.256 40.3272 33.4704 45.6 24.6 45.6C12.36 45.6 2.4 35.64 2.4 23.4Z" fill="#4A4A4A"/>
</g>
</svg>
