<svg width="48" height="51" viewBox="0 0 48 51" fill="none" xmlns="http://www.w3.org/2000/svg">
<g id="A / Icon / Moon">
<mask id="mask0_0:247" style="mask-type:alpha" maskUnits="userSpaceOnUse" x="0" y="0" width="48" height="51">
<path id="Clip 2" fill-rule="evenodd" clip-rule="evenodd" d="M0 0H48V51H0V0Z" fill="white"/>
</mask>
<g mask="url(#mask0_0:247)">
<path id="Fill 1" fill-rule="evenodd" clip-rule="evenodd" d="M24.5986 50.9949C18.0278 50.9949 11.8505 48.2768 7.20439 43.3404C2.55825 38.404 0 31.8408 0 24.8594C0 19.1198 1.7351 13.7041 5.01571 9.19602C6.58762 7.03634 8.46912 5.15458 10.6098 3.60175C12.7673 2.03618 15.1407 0.84032 17.6606 0.0524316C18.1214 -0.092907 18.6181 0.0702802 18.9253 0.46295C19.2325 0.855619 19.2877 1.40383 19.0693 1.85769C17.5214 5.06279 16.8014 8.11745 16.8014 11.4755C16.8014 23.4265 25.9521 33.1488 37.2003 33.1488C40.3609 33.1488 43.2359 32.3839 46.2526 30.7393C46.6797 30.5073 47.1957 30.5659 47.5653 30.8923C47.9349 31.2186 48.086 31.7465 47.9517 32.236C47.2077 34.9133 46.0846 37.4351 44.611 39.7273C43.1495 42.0018 41.3784 44.0008 39.3457 45.6709C35.1028 49.1565 30.0031 51 24.6034 51L24.5986 50.9949Z" fill="white"/>
</g>
</g>
</svg>
